<svg width="36" height="36" viewBox="0 0 36 36" fill="none" xmlns="http://www.w3.org/2000/svg">
<g filter="url(#filter0_d_610_151)">
<rect x="4" width="28" height="28" rx="4" fill="#83D187"/>
<path d="M26.7969 19.4414C26.519 19.2482 26.2745 19.0111 26.0728 18.7393C25.5901 18.1908 24.9758 17.5106 23.8348 17.5106C22.6939 17.5106 22.1015 18.1688 21.5968 18.7612C21.0922 19.3536 20.7631 19.7047 20.0171 19.7047C19.2711 19.7047 18.8981 19.2878 18.4374 18.7612C17.9766 18.2346 17.3622 17.5106 16.1994 17.5106C15.0365 17.5106 14.466 18.1688 13.9614 18.7612C13.4567 19.3536 13.1276 19.7047 12.3816 19.7047C11.6356 19.7047 11.2626 19.2878 10.8019 18.7612C10.4887 18.3476 10.0926 18.0038 9.639 17.7519C9.42087 17.6429 9.15566 17.7313 9.0466 17.9494C8.93753 18.1675 9.02593 18.4327 9.24406 18.5418C9.58856 18.7494 9.8932 19.017 10.1436 19.3317C10.6483 19.9241 11.2407 20.5823 12.3816 20.5823C13.5226 20.5823 14.1149 19.9241 14.6196 19.3317C15.1242 18.7393 15.4534 18.3882 16.1994 18.3882C16.9453 18.3882 17.3184 18.8051 17.7791 19.3317C18.2398 19.8583 18.8542 20.5823 20.0171 20.5823C21.18 20.5823 21.7504 19.9241 22.2551 19.3317C22.7597 18.7393 23.0888 18.3882 23.8348 18.3882C24.5808 18.3882 24.9538 18.8051 25.4146 19.3317C25.6703 19.66 25.9735 19.9484 26.3141 20.1874C26.5201 20.3207 26.7952 20.2617 26.9285 20.0557C27.0618 19.8497 27.0029 19.5747 26.7969 19.4414Z" fill="#DDFFDF"/>
<path d="M26.7969 16.1502C26.519 15.9571 26.2745 15.7199 26.0728 15.4481C25.5901 14.8996 24.9758 14.2194 23.8348 14.2194C22.6939 14.2194 22.1015 14.8777 21.5968 15.4701C21.0922 16.0625 20.7631 16.4136 20.0171 16.4136C19.2711 16.4136 18.8981 15.9967 18.4374 15.4701C17.9766 14.9435 17.3622 14.2194 16.1994 14.2194C15.0365 14.2194 14.466 14.8777 13.9614 15.4701C13.4567 16.0625 13.1276 16.4136 12.3816 16.4136C11.6356 16.4136 11.2626 15.9967 10.8019 15.4701C10.4887 15.0564 10.0926 14.7127 9.639 14.4608C9.42087 14.3517 9.15566 14.4401 9.0466 14.6583C8.93753 14.8764 9.02593 15.1416 9.24406 15.2507C9.58856 15.4583 9.8932 15.7258 10.1436 16.0405C10.6483 16.6329 11.2407 17.2912 12.3816 17.2912C13.5226 17.2912 14.1149 16.633 14.6196 16.0405C15.1242 15.4481 15.4534 15.0971 16.1994 15.0971C16.9453 15.0971 17.3184 15.514 17.7791 16.0405C18.2398 16.5671 18.8542 17.2912 20.0171 17.2912C21.18 17.2912 21.7504 16.633 22.2551 16.0405C22.7597 15.4481 23.0888 15.0971 23.8348 15.0971C24.5808 15.0971 24.9538 15.514 25.4146 16.0405C25.6703 16.3689 25.9735 16.6573 26.3141 16.8962C26.5201 17.0295 26.7952 16.9706 26.9285 16.7646C27.0618 16.5586 27.0029 16.2835 26.7969 16.1502Z" fill="#DDFFDF"/>
<path d="M26.7969 12.6396C26.519 12.4464 26.2745 12.2093 26.0728 11.9375C25.5901 11.3889 24.9758 10.7088 23.8348 10.7088C22.6939 10.7088 22.1015 11.367 21.5968 11.9594C21.0922 12.5519 20.7631 12.9029 20.0171 12.9029C19.2711 12.9029 18.8981 12.486 18.4374 11.9594C17.9766 11.4329 17.3622 10.7088 16.1994 10.7088C15.0365 10.7088 14.466 11.367 13.9614 11.9594C13.4567 12.5518 13.1276 12.9029 12.3816 12.9029C11.6356 12.9029 11.2626 12.486 10.8019 11.9594C10.4887 11.5458 10.0926 11.202 9.639 10.9501C9.42087 10.8411 9.15566 10.9295 9.0466 11.1476C8.93753 11.3657 9.02593 11.6309 9.24406 11.74C9.58856 11.9476 9.8932 12.2151 10.1436 12.5299C10.6483 13.1223 11.2407 13.7805 12.3816 13.7805C13.5226 13.7805 14.1149 13.1223 14.6196 12.5299C15.1242 11.9375 15.4534 11.5864 16.1994 11.5864C16.9453 11.5864 17.3184 12.0033 17.7791 12.5299C18.2398 13.0564 18.8542 13.7805 20.0171 13.7805C21.18 13.7805 21.7504 13.1223 22.2551 12.5299C22.7598 11.9374 23.0888 11.5864 23.8348 11.5864C24.5808 11.5864 24.9538 12.0033 25.4146 12.5299C25.6703 12.8582 25.9735 13.1466 26.3141 13.3855C26.5201 13.5188 26.7952 13.4599 26.9285 13.2539C27.0618 13.0479 27.0029 12.7729 26.7969 12.6396Z" fill="#DDFFDF"/>
<path d="M9.24424 8.44895C9.58873 8.65658 9.89338 8.9241 10.1438 9.23882C10.6484 9.83122 11.2408 10.4895 12.3818 10.4895C13.5228 10.4895 14.1151 9.83126 14.6198 9.23882C15.1244 8.64642 15.4535 8.29537 16.1995 8.29537C16.9455 8.29537 17.3185 8.71227 17.7793 9.23882C18.24 9.76541 18.8544 10.4895 20.0173 10.4895C21.1802 10.4895 21.7506 9.83126 22.2553 9.23882C22.7599 8.64642 23.089 8.29537 23.835 8.29537C24.581 8.29537 24.954 8.71227 25.4147 9.23882C25.6705 9.56715 25.9736 9.85554 26.3143 10.0945C26.5203 10.2278 26.7954 10.1689 26.9287 9.96288C27.062 9.75689 27.0031 9.48181 26.797 9.34851C26.5191 9.15537 26.2746 8.91822 26.073 8.64642C25.5902 8.0979 24.9759 7.41772 23.835 7.41772C22.694 7.41772 22.1016 8.07594 21.597 8.66838C21.0923 9.26078 20.7632 9.61183 20.0172 9.61183C19.2712 9.61183 18.8982 9.19493 18.4375 8.66838C17.9767 8.14179 17.3624 7.41772 16.1995 7.41772C15.0366 7.41772 14.4662 8.07594 13.9615 8.66838C13.4569 9.26078 13.1277 9.61183 12.3818 9.61183C11.6358 9.61183 11.2628 9.19493 10.8021 8.66834C10.4888 8.25467 10.0928 7.91093 9.63917 7.65904C9.42104 7.54997 9.15583 7.63837 9.04677 7.8565C8.9377 8.07463 9.02615 8.33988 9.24424 8.44895Z" fill="#DDFFDF"/>
</g>
<defs>
<filter id="filter0_d_610_151" x="0" y="0" width="36" height="36" filterUnits="userSpaceOnUse" color-interpolation-filters="sRGB">
<feFlood flood-opacity="0" result="BackgroundImageFix"/>
<feColorMatrix in="SourceAlpha" type="matrix" values="0 0 0 0 0 0 0 0 0 0 0 0 0 0 0 0 0 0 127 0" result="hardAlpha"/>
<feOffset dy="4"/>
<feGaussianBlur stdDeviation="2"/>
<feComposite in2="hardAlpha" operator="out"/>
<feColorMatrix type="matrix" values="0 0 0 0 0 0 0 0 0 0 0 0 0 0 0 0 0 0 0.25 0"/>
<feBlend mode="normal" in2="BackgroundImageFix" result="effect1_dropShadow_610_151"/>
<feBlend mode="normal" in="SourceGraphic" in2="effect1_dropShadow_610_151" result="shape"/>
</filter>
</defs>
</svg>
